General

Format : Matroska
Format version : Version 2
File size : 911 MiB
Duration : 1h 55mn
Overall bit rate : 1 107 Kbps
Encoded date : UTC 2011-11-12 16:07:03
Writing application : mkvmerge v4.6.0 ('Still Crazy After All These Years') built on Mar 10 2011 02:50:32
Writing library : libebml v1.2.0 + libmatroska v1.1.0

Video
ID : 1
Format : AVC
Format/Info : Advanced Video Codec
Format profile : Main@L3.1
Format settings, CABAC : Yes
Format settings, ReFrames : 4 frames
Codec ID : V_MPEG4/ISO/AVC
Duration : 1h 55mn
Bit rate : 975 Kbps
Width : 1 280 pixels
Height : 544 pixels
Display aspect ratio : 2.35:1
Frame rate : 23.976 fps
Color space : YUV
Chroma subsampling : 4:2:0
Bit depth : 8 bits
Scan type : Progressive
Bits/(Pixel*Frame) : 0.058
Stream size : 788 MiB (86%)

Audio
ID : 2
Format : MPEG Audio
Format version : Version 1
Format profile : Layer 3
Mode : Joint stereo
Mode extension : MS Stereo
Codec ID : A_MPEG/L3
Codec ID/Hint : MP3
Duration : 1h 55mn
Bit rate mode : Constant
Bit rate : 128 Kbps
Channel(s) : 2 channels
Sampling rate : 44.1 KHz
Compression mode : Lossy
Stream size : 105 MiB (12%)
Writing library : LAME3.98.2



Screen Shot
 
http://postimg.com/53000/photo-52023.jpg
 
http://postimg.com/53000/photo-52024.jpg
 
http://postimg.com/53000/photo-52025.jpg
 
http://postimg.com/53000/photo-52026.jpg
 
http://postimg.com/53000/photo-52027.jpg
 
http://postimg.com/53000/photo-52029.jpg
 
http://postimg.com/53000/photo-52031.jpg
